<svg width="60" height="60" viewBox="0 0 60 60"
                    fill="none" xmlns="http://www.w3.org/2000/svg">
                    <g filter="url(#filter0_d)">
                      <circle cx="30" cy="26" r="20" fill="white" />
                    </g>
                    <circle class="face" cx="30" cy="25.9998" r="17.1429" fill="#DFE4EE" />
                    <path class="mouth1"
                      d="M36.4012 34.9082C37.1828 34.5495 37.5366 33.6135 37.0382 32.9127C36.4163 32.0381 35.6273 31.2884 34.7117 30.7099C33.3549 29.8526 31.7783 29.4077 30.1736 29.4295C28.5688 29.4512 27.0048 29.9385 25.6718 30.8322C24.7721 31.4354 24.0038 32.2061 23.4057 33.0972C22.9265 33.8113 23.3055 34.7374 24.0965 35.0747C24.8875 35.4121 25.7876 35.0215 26.3444 34.3661C26.6513 34.0048 27.008 33.6856 27.4059 33.4189C28.2379 32.8611 29.2141 32.5569 30.2157 32.5433C31.2173 32.5298 32.2014 32.8074 33.0482 33.3425C33.4531 33.5984 33.8184 33.9078 34.1349 34.2607C34.7093 34.9007 35.6196 35.2668 36.4012 34.9082Z"
                      fill="#9CA7BB" />
                    <circle class="eye1" cx="23.7143" cy="24.857" r="2.28571" fill="#9CA7BB" />
                    <circle class="eye1" cx="37.4285" cy="24.857" r="2.28571" fill="#9CA7BB" />
                    <defs>
                      <filter id="filter0_d" x="0" y="0" width="60" height="60" filterUnits="userSpaceOnUse"
                        color-interpolation-filters="sRGB">
                        <feFlood flood-opacity="0" result="BackgroundImageFix" />
                        <feColorMatrix in="SourceAlpha" type="matrix"
                          values="0 0 0 0 0 0 0 0 0 0 0 0 0 0 0 0 0 0 127 0" />
                        <feOffset dy="4" />
                        <feGaussianBlur stdDeviation="5" />
                        <feColorMatrix type="matrix"
                          values="0 0 0 0 0.0862745 0 0 0 0 0.176471 0 0 0 0 0.239216 0 0 0 0.15 0" />
                        <feBlend mode="normal" in2="BackgroundImageFix" result="effect1_dropShadow" />
                        <feBlend mode="normal" in="SourceGraphic" in2="effect1_dropShadow" result="shape" />
                      </filter>
                    </defs>
                  </svg>